<svg width="320" height="320" viewBox="0 0 320 320" fill="none" xmlns="http://www.w3.org/2000/svg">
<g clip-path="url(#clip0_15_34)">
<path d="M235.24 0H84.76C54.1641 0 38.8661 0 27.3075 6.23671C18.3788 11.0544 11.0544 18.3788 6.23671 27.3075C0 38.8661 0 54.1641 0 84.76V235.24C0 265.836 0 281.134 6.23671 292.693C11.0544 301.621 18.3788 308.946 27.3075 313.763C38.8661 320 54.1641 320 84.76 320H235.24C265.836 320 281.134 320 292.693 313.763C301.621 308.946 308.946 301.621 313.763 292.693C320 281.134 320 265.836 320 235.24V84.76C320 54.1641 320 38.8661 313.763 27.3075C308.946 18.3788 301.621 11.0544 292.693 6.23671C281.134 0 265.836 0 235.24 0Z" fill="white"/>
<path d="M146.67 40H93.34C63.88 40 40.01 63.88 40.01 93.33V146.66C40.01 176.12 63.89 199.99 93.34 199.99H146.67C176.13 199.99 200 176.11 200 146.66V93.33C200 63.87 176.12 40 146.67 40Z" fill="#C4D2E1"/>
<path d="M226.67 120H173.33C143.877 120 120 143.877 120 173.33V226.67C120 256.123 143.877 280 173.33 280H226.67C256.123 280 280 256.123 280 226.67V173.33C280 143.877 256.123 120 226.67 120Z" fill="#4B79A1"/>
<path d="M80.0001 266.67C94.7295 266.67 106.67 254.729 106.67 240C106.67 225.271 94.7295 213.33 80.0001 213.33C65.2706 213.33 53.3301 225.271 53.3301 240C53.3301 254.729 65.2706 266.67 80.0001 266.67Z" fill="#86A5C0"/>
<path d="M240 106.67C254.73 106.67 266.67 94.7294 266.67 80C266.67 65.2706 254.73 53.33 240 53.33C225.271 53.33 213.33 65.2706 213.33 80C213.33 94.7294 225.271 106.67 240 106.67Z" fill="#87A6C0"/>
</g>
<defs>
<clipPath id="clip0_15_34">
<rect width="320" height="320" fill="white"/>
</clipPath>
</defs>
</svg>
